<svg xmlns="http://www.w3.org/2000/svg" viewBox="0 0 110 120">
  <!-- Back tooth shape (dark navy) — shifted right -->
  <path d="M38 6 C50 2 72 6 82 14 L84 52 C84 70 80 88 74 102 C71 110 66 114 62 110 C58 106 55 96 53 84 L50 72 L38 72 C30 72 22 76 20 86 C17 96 14 106 10 110 C7 114 4 110 2 100 C-2 84 0 62 4 42 Z"
        fill="#1A3D6E"/>
  <!-- Front tooth shape (light blue) -->
  <path d="M28 2 C40 -2 62 2 72 10 L74 48 C74 66 70 84 64 98 C61 106 56 110 52 106 C48 102 45 92 43 80 L40 68 L28 68 C20 68 12 72 10 82 C7 92 4 102 0 106 C-3 110 -6 106 -8 96 C-12 80 -10 58 -6 38 Z"
        fill="#00AEEF"/>
  <!-- Top-left highlight facet -->
  <path d="M28 2 L72 10 L60 42 L28 38 Z"
        fill="#29C9F7" opacity="0.55"/>
  <!-- Right inner shadow -->
  <path d="M60 42 L72 10 L74 48 L68 54 Z"
        fill="#0090CC" opacity="0.5"/>
</svg>
